<?xml version="1.0" standalone="no"?>
<!DOCTYPE svg PUBLIC "-//W3C//DTD SVG 20010904//EN"
 "http://www.w3.org/TR/2001/REC-SVG-20010904/DTD/svg10.dtd">
<svg version="1.0" xmlns="http://www.w3.org/2000/svg"
 width="1920.000000pt" height="1920.000000pt" viewBox="0 0 1920.000000 1920.000000"
 preserveAspectRatio="xMidYMid meet">
<metadata>
Created by potrace 1.14, written by Peter Selinger 2001-2017
</metadata>
<g transform="translate(0.000000,1920.000000) scale(0.100000,-0.100000)"
fill="#000000" stroke="none">
<path d="M5567 14278 c-47 -58 -76 -119 -83 -172 l-7 -45 -71 -11 c-559 -91
-945 -201 -999 -284 -8 -11 -27 -60 -42 -109 -32 -101 -56 -131 -116 -147 -78
-21 -407 -88 -694 -140 -356 -65 -406 -86 -473 -199 -20 -35 -27 -61 -30 -126
-5 -92 11 -162 58 -256 l29 -57 -19 -49 c-61 -161 -15 -398 87 -443 15 -7 41
-33 57 -57 29 -45 131 -133 154 -133 8 0 6 11 -8 37 -44 82 -13 148 90 200 78
40 185 63 286 63 67 0 77 -3 98 -25 44 -47 42 -109 -5 -151 -47 -41 -199 -145
-251 -172 -71 -37 -161 -38 -208 -4 -17 13 -34 21 -37 18 -10 -10 38 -103 69
-132 27 -27 28 -31 28 -124 0 -60 6 -113 15 -141 34 -99 121 -163 224 -162
105 1 136 16 234 114 160 162 330 220 511 173 234 -60 395 -277 371 -499 -15
-143 -85 -272 -241 -450 -283 -322 -458 -729 -539 -1255 -22 -144 -31 -487
-16 -631 36 -347 151 -640 313 -796 l43 -42 -3 148 c-4 125 -1 161 16 230 21
81 59 178 67 170 2 -3 16 -85 30 -184 47 -323 93 -518 161 -683 47 -115 68
-240 61 -377 -10 -201 -63 -340 -218 -571 -244 -365 -494 -684 -867 -1106
l-175 -198 -122 0 c-261 0 -486 -69 -618 -190 -91 -83 -127 -183 -127 -350 l0
-90 225 0 226 0 18 43 c46 104 124 172 239 207 78 24 94 25 62 3 -73 -48 -125
-115 -160 -203 l-20 -50 569 0 c443 0 571 3 578 13 5 6 24 48 42 92 127 319
389 619 753 863 154 104 369 217 603 318 l99 43 52 173 c29 95 64 200 79 233
l26 60 -28 24 c-251 211 -379 383 -432 581 -23 86 -23 86 68 -55 183 -281 435
-467 739 -544 153 -40 300 -54 520 -52 l62 1 -84 123 c-209 305 -342 596 -395
862 -21 110 -36 213 -29 205 3 -3 38 -88 79 -190 294 -740 645 -1185 1124
-1428 82 -41 252 -170 309 -233 88 -98 107 -167 87 -310 -13 -92 -43 -178 -78
-219 -25 -30 -25 -30 -132 -30 -221 0 -416 -32 -520 -85 -138 -69 -211 -202
-211 -380 l0 -65 185 0 184 0 26 55 c32 66 98 135 160 165 55 27 145 51 145
40 0 -5 -9 -11 -20 -15 -44 -14 -123 -123 -161 -222 l-9 -23 493 0 492 0 139
416 c166 500 163 460 60 659 -157 302 -164 318 -184 417 -46 223 -49 433 -9
668 11 63 21 122 24 130 3 10 -19 31 -62 60 -178 120 -316 320 -339 490 l-7
55 61 -77 c130 -161 297 -312 446 -404 42 -26 76 -52 76 -58 0 -6 -7 -87 -14
-181 -8 -93 -12 -172 -10 -174 2 -2 79 -16 171 -32 93 -15 287 -48 433 -73
345 -60 492 -76 675 -76 344 1 505 56 792 275 208 159 198 151 190 130 -48
-127 -233 -315 -435 -441 -114 -71 -109 -61 -77 -125 71 -140 186 -271 315
-359 62 -42 220 -123 227 -116 3 2 -10 33 -28 67 -30 60 -89 221 -89 243 0 5
17 -6 38 -26 167 -159 447 -267 812 -311 58 -7 105 -17 105 -23 0 -6 -65 -159
-145 -341 l-145 -330 -200 -6 c-272 -8 -357 -30 -437 -114 -20 -21 -47 -60
-59 -87 -21 -48 -48 -175 -49 -228 l0 -28 640 0 641 0 42 42 c85 86 239 310
542 788 92 146 192 300 221 343 30 43 54 82 54 86 0 5 -28 18 -62 31 -35 12
-121 50 -193 85 -437 211 -741 531 -869 915 -19 58 -37 123 -41 145 -6 46 -13
54 80 -89 341 -519 793 -857 1331 -996 161 -42 268 -59 457 -72 447 -31 962
65 1510 283 82 33 152 59 156 59 7 0 78 -121 156 -264 45 -84 114 -254 137
-339 30 -110 31 -269 2 -342 l-20 -50 -144 -7 c-229 -10 -381 -38 -473 -85
-113 -58 -174 -180 -192 -378 -3 -38 -8 -89 -11 -113 l-5 -42 226 0 226 0 16
37 c44 107 131 181 250 214 73 20 91 19 46 -4 -57 -31 -118 -109 -153 -197
l-20 -50 525 0 525 0 49 102 c74 153 102 268 108 459 8 229 -18 414 -97 677
-162 540 -482 1056 -766 1238 -113 72 -231 103 -494 129 -259 25 -351 49 -494
129 -157 88 -266 213 -425 487 -52 89 -120 195 -152 235 -102 128 -268 256
-456 352 -51 26 -93 49 -93 52 0 3 37 18 83 34 45 16 143 60 217 98 406 206
655 500 752 886 30 117 33 413 5 539 -89 414 -363 780 -725 967 -203 104 -359
145 -587 153 -286 10 -517 -34 -1022 -196 -534 -171 -731 -199 -982 -140 -287
67 -543 288 -639 551 -24 66 -27 86 -27 213 0 121 3 150 24 210 121 361 433
583 846 602 127 6 303 -4 289 -16 -5 -4 -34 -15 -64 -24 -242 -74 -311 -273
-147 -424 96 -88 219 -127 448 -143 212 -14 356 -47 453 -104 91 -53 175 -168
191 -262 13 -69 20 -71 50 -19 81 138 114 335 81 480 -44 189 -179 371 -406
547 l-35 27 80 0 c47 0 125 -9 190 -23 61 -13 111 -22 113 -21 7 6 -129 97
-209 139 -285 151 -564 173 -679 54 l-39 -39 -83 16 c-128 26 -362 31 -488 11
-355 -56 -668 -250 -854 -529 -110 -165 -155 -307 -163 -507 -6 -159 15 -284
72 -432 87 -223 217 -393 418 -541 362 -269 818 -339 1432 -221 72 14 270 59
442 100 412 98 532 117 693 111 98 -3 138 -9 182 -26 165 -64 356 -247 448
-430 63 -126 86 -292 59 -423 -15 -74 -77 -201 -133 -275 -90 -119 -264 -238
-411 -282 -454 -135 -1599 -71 -2810 155 -664 124 -1274 289 -1670 450 -356
146 -645 376 -762 609 -53 105 -77 231 -63 338 4 38 11 71 14 74 12 12 89 -32
122 -70 18 -22 46 -71 60 -109 17 -42 30 -64 35 -56 38 72 47 374 16 529 -15
74 -69 257 -92 312 -6 14 -2 17 21 17 57 -1 108 -36 204 -140 90 -99 167 -160
199 -160 12 0 11 3 -2 18 -42 47 -96 215 -132 417 -75 410 -195 624 -444 787
-40 26 -78 48 -83 48 -5 0 -7 4 -4 9 3 5 37 3 78 -5 140 -27 286 -13 353 33
18 12 18 13 -10 13 -37 0 -125 40 -175 80 -21 17 -92 91 -157 166 -170 196
-292 288 -443 334 l-55 17 45 12 c194 52 315 109 391 184 l52 51 -99 17 c-166
28 -257 67 -514 220 -402 238 -610 318 -902 349 -51 5 -126 10 -167 10 -63 0
-79 4 -106 24 -45 35 -141 82 -195 96 -78 21 -176 15 -264 -15 -70 -24 -80
-25 -94 -12 -13 14 -12 20 12 61 14 24 26 48 26 51 0 12 -83 -7 -123 -27 -22
-11 -58 -37 -82 -59 -23 -21 -47 -39 -53 -39 -18 0 -25 45 -14 94 5 25 6 46 1
46 -4 0 -23 -19 -42 -42z"/>
</g>
</svg>
